<svg width="30" height="30" viewBox="0 0 30 30" fill="none" xmlns="http://www.w3.org/2000/svg">
<g clip-path="url(#clip0_31_280)">
<path fill-rule="evenodd" clip-rule="evenodd" d="M11.8702 8.9147C11.4833 8.69362 11.008 8.69521 10.6226 8.91886C10.2372 9.14251 10 9.55441 10 10V20C10 20.4456 10.2372 20.8575 10.6226 21.0811C11.008 21.3047 11.4833 21.3064 11.8702 21.0852L20.6201 16.0852C21.0096 15.8627 21.25 15.4486 21.25 15C21.25 14.5514 21.0096 14.1372 20.6201 13.9147L11.8702 8.9147ZM17.4805 15L12.5 17.846V12.154L17.4805 15Z" fill="#0F0F0F"/>
<path fill-rule="evenodd" clip-rule="evenodd" d="M0 15C0 10.3128 0 7.96925 1.19364 6.32634C1.57914 5.79575 2.04575 5.32914 2.57634 4.94364C4.21925 3.75 6.56284 3.75 11.25 3.75H18.75C23.4371 3.75 25.7808 3.75 27.4236 4.94364C27.9543 5.32914 28.4209 5.79575 28.8064 6.32634C30 7.96925 30 10.3128 30 15C30 19.6871 30 22.0308 28.8064 23.6736C28.4209 24.2043 27.9543 24.6709 27.4236 25.0564C25.7808 26.25 23.4371 26.25 18.75 26.25H11.25C6.56284 26.25 4.21925 26.25 2.57634 25.0564C2.04575 24.6709 1.57914 24.2043 1.19364 23.6736C0 22.0308 0 19.6871 0 15ZM11.25 6.25H18.75C21.1493 6.25 22.7479 6.25344 23.9591 6.38466C25.1236 6.51082 25.63 6.7306 25.9542 6.96619C26.2725 7.19749 26.5525 7.47745 26.7839 7.7958C27.0194 8.12006 27.2391 8.62641 27.3654 9.79086C27.4966 11.0021 27.5 12.6007 27.5 15C27.5 17.3993 27.4966 18.9979 27.3654 20.2091C27.2391 21.3736 27.0194 21.88 26.7839 22.2042C26.5525 22.5225 26.2725 22.8025 25.9542 23.0339C25.63 23.2694 25.1236 23.4891 23.9591 23.6154C22.7479 23.7466 21.1493 23.75 18.75 23.75H11.25C8.85073 23.75 7.25209 23.7466 6.04086 23.6154C4.87641 23.4891 4.37006 23.2694 4.0458 23.0339C3.72745 22.8025 3.44749 22.5225 3.21619 22.2042C2.9806 21.88 2.76082 21.3736 2.63466 20.2091C2.50344 18.9979 2.5 17.3993 2.5 15C2.5 12.6007 2.50344 11.0021 2.63466 9.79086C2.76082 8.62641 2.9806 8.12006 3.21619 7.7958C3.44749 7.47745 3.72745 7.19749 4.0458 6.96619C4.37006 6.7306 4.87641 6.51082 6.04086 6.38466C7.25209 6.25344 8.85073 6.25 11.25 6.25Z" fill="#0F0F0F"/>
</g>
<defs>
<clipPath id="clip0_31_280">
<rect width="30" height="30" fill="white"/>
</clipPath>
</defs>
</svg>
